<?xml version="1.0" encoding="utf-8" standalone="no"?>
<!DOCTYPE svg PUBLIC "-//W3C//DTD SVG 1.1//EN"
  "http://www.w3.org/Graphics/SVG/1.1/DTD/svg11.dtd">
<svg xmlns:xlink="http://www.w3.org/1999/xlink" width="209.302939pt" height="135.99625pt" viewBox="0 0 209.302939 135.99625" xmlns="http://www.w3.org/2000/svg" version="1.1">
 <metadata>
  <rdf:RDF xmlns:dc="http://purl.org/dc/elements/1.1/" xmlns:cc="http://creativecommons.org/ns#" xmlns:rdf="http://www.w3.org/1999/02/22-rdf-syntax-ns#">
   <cc:Work>
    <dc:type rdf:resource="http://purl.org/dc/dcmitype/StillImage"/>
    <dc:date>2025-09-30T08:53:19.163586</dc:date>
    <dc:format>image/svg+xml</dc:format>
    <dc:creator>
     <cc:Agent>
      <dc:title>Matplotlib v3.7.3, https://matplotlib.org/</dc:title>
     </cc:Agent>
    </dc:creator>
   </cc:Work>
  </rdf:RDF>
 </metadata>
 <defs>
  <style type="text/css">*{stroke-linejoin: round; stroke-linecap: butt}</style>
 </defs>
 <g id="figure_1">
  <g id="patch_1">
   <path d="M 0 135.99625 
L 209.302939 135.99625 
L 209.302939 0 
L 0 0 
z
" style="fill: #ffffff"/>
  </g>
  <g id="axes_1">
   <g id="patch_2">
    <path d="M 46.965625 98.44 
L 196.017382 98.44 
L 196.017382 7.2 
L 46.965625 7.2 
z
" style="fill: #ffffff"/>
   </g>
   <g id="matplotlib.axis_1">
    <g id="xtick_1">
     <g id="line2d_1">
      <defs>
       <path id="mc1fbbc5a2d" d="M 0 0 
L 0 3.5 
" style="stroke: #000000; stroke-width: 0.8"/>
      </defs>
      <g>
       <use xlink:href="#mc1fbbc5a2d" x="53.740705" y="98.44" style="stroke: #000000; stroke-width: 0.8"/>
      </g>
     </g>
     <g id="text_1">
      <!-- 0 -->
      <g transform="translate(50.559455 113.038438) scale(0.1 -0.1)">
       <defs>
        <path id="DejaVuSans-30" d="M 2034 4250 
Q 1547 4250 1301 3770 
Q 1056 3291 1056 2328 
Q 1056 1369 1301 889 
Q 1547 409 2034 409 
Q 2525 409 2770 889 
Q 3016 1369 3016 2328 
Q 3016 3291 2770 3770 
Q 2525 4250 2034 4250 
z
M 2034 4750 
Q 2819 4750 3233 4129 
Q 3647 3509 3647 2328 
Q 3647 1150 3233 529 
Q 2819 -91 2034 -91 
Q 1250 -91 836 529 
Q 422 1150 422 2328 
Q 422 3509 836 4129 
Q 1250 4750 2034 4750 
z
" transform="scale(0.015625)"/>
       </defs>
       <use xlink:href="#DejaVuSans-30"/>
      </g>
     </g>
    </g>
    <g id="xtick_2">
     <g id="line2d_2">
      <g>
       <use xlink:href="#mc1fbbc5a2d" x="121.559322" y="98.44" style="stroke: #000000; stroke-width: 0.8"/>
      </g>
     </g>
     <g id="text_2">
      <!-- 500 -->
      <g transform="translate(112.015572 113.038438) scale(0.1 -0.1)">
       <defs>
        <path id="DejaVuSans-35" d="M 691 4666 
L 3169 4666 
L 3169 4134 
L 1269 4134 
L 1269 2991 
Q 1406 3038 1543 3061 
Q 1681 3084 1819 3084 
Q 2600 3084 3056 2656 
Q 3513 2228 3513 1497 
Q 3513 744 3044 326 
Q 2575 -91 1722 -91 
Q 1428 -91 1123 -41 
Q 819 9 494 109 
L 494 744 
Q 775 591 1075 516 
Q 1375 441 1709 441 
Q 2250 441 2565 725 
Q 2881 1009 2881 1497 
Q 2881 1984 2565 2268 
Q 2250 2553 1709 2553 
Q 1456 2553 1204 2497 
Q 953 2441 691 2322 
L 691 4666 
z
" transform="scale(0.015625)"/>
       </defs>
       <use xlink:href="#DejaVuSans-35"/>
       <use xlink:href="#DejaVuSans-30" x="63.623047"/>
       <use xlink:href="#DejaVuSans-30" x="127.246094"/>
      </g>
     </g>
    </g>
    <g id="xtick_3">
     <g id="line2d_3">
      <g>
       <use xlink:href="#mc1fbbc5a2d" x="189.377939" y="98.44" style="stroke: #000000; stroke-width: 0.8"/>
      </g>
     </g>
     <g id="text_3">
      <!-- 1000 -->
      <g transform="translate(176.652939 113.038438) scale(0.1 -0.1)">
       <defs>
        <path id="DejaVuSans-31" d="M 794 531 
L 1825 531 
L 1825 4091 
L 703 3866 
L 703 4441 
L 1819 4666 
L 2450 4666 
L 2450 531 
L 3481 531 
L 3481 0 
L 794 0 
L 794 531 
z
" transform="scale(0.015625)"/>
       </defs>
       <use xlink:href="#DejaVuSans-31"/>
       <use xlink:href="#DejaVuSans-30" x="63.623047"/>
       <use xlink:href="#DejaVuSans-30" x="127.246094"/>
       <use xlink:href="#DejaVuSans-30" x="190.869141"/>
      </g>
     </g>
    </g>
    <g id="text_4">
     <!-- Trial -->
     <g transform="translate(111.277441 126.716562) scale(0.1 -0.1)">
      <defs>
       <path id="DejaVuSans-54" d="M -19 4666 
L 3928 4666 
L 3928 4134 
L 2272 4134 
L 2272 0 
L 1638 0 
L 1638 4134 
L -19 4134 
L -19 4666 
z
" transform="scale(0.015625)"/>
       <path id="DejaVuSans-72" d="M 2631 2963 
Q 2534 3019 2420 3045 
Q 2306 3072 2169 3072 
Q 1681 3072 1420 2755 
Q 1159 2438 1159 1844 
L 1159 0 
L 581 0 
L 581 3500 
L 1159 3500 
L 1159 2956 
Q 1341 3275 1631 3429 
Q 1922 3584 2338 3584 
Q 2397 3584 2469 3576 
Q 2541 3569 2628 3553 
L 2631 2963 
z
" transform="scale(0.015625)"/>
       <path id="DejaVuSans-69" d="M 603 3500 
L 1178 3500 
L 1178 0 
L 603 0 
L 603 3500 
z
M 603 4863 
L 1178 4863 
L 1178 4134 
L 603 4134 
L 603 4863 
z
" transform="scale(0.015625)"/>
       <path id="DejaVuSans-61" d="M 2194 1759 
Q 1497 1759 1228 1600 
Q 959 1441 959 1056 
Q 959 750 1161 570 
Q 1363 391 1709 391 
Q 2188 391 2477 730 
Q 2766 1069 2766 1631 
L 2766 1759 
L 2194 1759 
z
M 3341 1997 
L 3341 0 
L 2766 0 
L 2766 531 
Q 2569 213 2275 61 
Q 1981 -91 1556 -91 
Q 1019 -91 701 211 
Q 384 513 384 1019 
Q 384 1609 779 1909 
Q 1175 2209 1959 2209 
L 2766 2209 
L 2766 2266 
Q 2766 2663 2505 2880 
Q 2244 3097 1772 3097 
Q 1472 3097 1187 3025 
Q 903 2953 641 2809 
L 641 3341 
Q 956 3463 1253 3523 
Q 1550 3584 1831 3584 
Q 2591 3584 2966 3190 
Q 3341 2797 3341 1997 
z
" transform="scale(0.015625)"/>
       <path id="DejaVuSans-6c" d="M 603 4863 
L 1178 4863 
L 1178 0 
L 603 0 
L 603 4863 
z
" transform="scale(0.015625)"/>
      </defs>
      <use xlink:href="#DejaVuSans-54"/>
      <use xlink:href="#DejaVuSans-72" x="46.333984"/>
      <use xlink:href="#DejaVuSans-69" x="87.447266"/>
      <use xlink:href="#DejaVuSans-61" x="115.230469"/>
      <use xlink:href="#DejaVuSans-6c" x="176.509766"/>
     </g>
    </g>
   </g>
   <g id="matplotlib.axis_2">
    <g id="ytick_1">
     <g id="line2d_4">
      <defs>
       <path id="m4cab7f7b15" d="M 0 0 
L -3.5 0 
" style="stroke: #000000; stroke-width: 0.8"/>
      </defs>
      <g>
       <use xlink:href="#m4cab7f7b15" x="46.965625" y="55.941603" style="stroke: #000000; stroke-width: 0.8"/>
      </g>
     </g>
     <g id="text_5">
      <!-- 50 -->
      <g transform="translate(27.240625 59.740822) scale(0.1 -0.1)">
       <use xlink:href="#DejaVuSans-35"/>
       <use xlink:href="#DejaVuSans-30" x="63.623047"/>
      </g>
     </g>
    </g>
    <g id="ytick_2">
     <g id="line2d_5">
      <g>
       <use xlink:href="#m4cab7f7b15" x="46.965625" y="11.347273" style="stroke: #000000; stroke-width: 0.8"/>
      </g>
     </g>
     <g id="text_6">
      <!-- 100 -->
      <g transform="translate(20.878125 15.146491) scale(0.1 -0.1)">
       <use xlink:href="#DejaVuSans-31"/>
       <use xlink:href="#DejaVuSans-30" x="63.623047"/>
       <use xlink:href="#DejaVuSans-30" x="127.246094"/>
      </g>
     </g>
    </g>
    <g id="text_7">
     <!-- Latency -->
     <g transform="translate(14.798437 72.584062) rotate(-90) scale(0.1 -0.1)">
      <defs>
       <path id="DejaVuSans-4c" d="M 628 4666 
L 1259 4666 
L 1259 531 
L 3531 531 
L 3531 0 
L 628 0 
L 628 4666 
z
" transform="scale(0.015625)"/>
       <path id="DejaVuSans-74" d="M 1172 4494 
L 1172 3500 
L 2356 3500 
L 2356 3053 
L 1172 3053 
L 1172 1153 
Q 1172 725 1289 603 
Q 1406 481 1766 481 
L 2356 481 
L 2356 0 
L 1766 0 
Q 1100 0 847 248 
Q 594 497 594 1153 
L 594 3053 
L 172 3053 
L 172 3500 
L 594 3500 
L 594 4494 
L 1172 4494 
z
" transform="scale(0.015625)"/>
       <path id="DejaVuSans-65" d="M 3597 1894 
L 3597 1613 
L 953 1613 
Q 991 1019 1311 708 
Q 1631 397 2203 397 
Q 2534 397 2845 478 
Q 3156 559 3463 722 
L 3463 178 
Q 3153 47 2828 -22 
Q 2503 -91 2169 -91 
Q 1331 -91 842 396 
Q 353 884 353 1716 
Q 353 2575 817 3079 
Q 1281 3584 2069 3584 
Q 2775 3584 3186 3129 
Q 3597 2675 3597 1894 
z
M 3022 2063 
Q 3016 2534 2758 2815 
Q 2500 3097 2075 3097 
Q 1594 3097 1305 2825 
Q 1016 2553 972 2059 
L 3022 2063 
z
" transform="scale(0.015625)"/>
       <path id="DejaVuSans-6e" d="M 3513 2113 
L 3513 0 
L 2938 0 
L 2938 2094 
Q 2938 2591 2744 2837 
Q 2550 3084 2163 3084 
Q 1697 3084 1428 2787 
Q 1159 2491 1159 1978 
L 1159 0 
L 581 0 
L 581 3500 
L 1159 3500 
L 1159 2956 
Q 1366 3272 1645 3428 
Q 1925 3584 2291 3584 
Q 2894 3584 3203 3211 
Q 3513 2838 3513 2113 
z
" transform="scale(0.015625)"/>
       <path id="DejaVuSans-63" d="M 3122 3366 
L 3122 2828 
Q 2878 2963 2633 3030 
Q 2388 3097 2138 3097 
Q 1578 3097 1268 2742 
Q 959 2388 959 1747 
Q 959 1106 1268 751 
Q 1578 397 2138 397 
Q 2388 397 2633 464 
Q 2878 531 3122 666 
L 3122 134 
Q 2881 22 2623 -34 
Q 2366 -91 2075 -91 
Q 1284 -91 818 406 
Q 353 903 353 1747 
Q 353 2603 823 3093 
Q 1294 3584 2113 3584 
Q 2378 3584 2631 3529 
Q 2884 3475 3122 3366 
z
" transform="scale(0.015625)"/>
       <path id="DejaVuSans-79" d="M 2059 -325 
Q 1816 -950 1584 -1140 
Q 1353 -1331 966 -1331 
L 506 -1331 
L 506 -850 
L 844 -850 
Q 1081 -850 1212 -737 
Q 1344 -625 1503 -206 
L 1606 56 
L 191 3500 
L 800 3500 
L 1894 763 
L 2988 3500 
L 3597 3500 
L 2059 -325 
z
" transform="scale(0.015625)"/>
      </defs>
      <use xlink:href="#DejaVuSans-4c"/>
      <use xlink:href="#DejaVuSans-61" x="55.712891"/>
      <use xlink:href="#DejaVuSans-74" x="116.992188"/>
      <use xlink:href="#DejaVuSans-65" x="156.201172"/>
      <use xlink:href="#DejaVuSans-6e" x="217.724609"/>
      <use xlink:href="#DejaVuSans-63" x="281.103516"/>
      <use xlink:href="#DejaVuSans-79" x="336.083984"/>
     </g>
    </g>
   </g>
   <g id="line2d_6">
    <path d="M 53.740705 79.130655 
L 53.876342 69.319902 
L 54.011979 17.590479 
L 54.147617 11.347273 
L 54.825803 11.347273 
L 54.96144 72.887449 
L 55.097077 11.347273 
L 55.368352 11.347273 
L 55.503989 74.671222 
L 55.639626 62.184809 
L 55.775263 76.454995 
L 55.910901 11.347273 
L 56.046538 19.374252 
L 56.182175 11.347273 
L 56.317812 65.752356 
L 56.45345 11.347273 
L 56.589087 30.968778 
L 56.724724 80.022542 
L 56.860361 82.698201 
L 57.131636 55.941603 
L 57.267273 20.266139 
L 57.40291 73.779335 
L 57.674185 34.536325 
L 57.809822 63.968583 
L 57.945459 60.401036 
L 58.081096 11.347273 
L 58.216734 62.184809 
L 58.352371 11.347273 
L 58.488008 50.590283 
L 58.623645 49.698397 
L 58.759283 88.049521 
L 58.89492 72.887449 
L 59.030557 11.347273 
L 59.166194 11.347273 
L 59.301831 47.022737 
L 59.573106 11.347273 
L 59.708743 11.347273 
L 59.980018 76.454995 
L 60.115655 63.968583 
L 60.251292 11.347273 
L 60.386929 55.049717 
L 60.522567 22.941799 
L 60.658204 71.995562 
L 60.793841 49.698397 
L 60.929478 83.590088 
L 61.065116 51.48217 
L 61.200753 66.644242 
L 61.472027 23.833685 
L 61.607664 83.590088 
L 61.878939 11.347273 
L 62.014576 11.347273 
L 62.150213 67.536129 
L 62.285851 11.347273 
L 62.421488 56.83349 
L 62.557125 11.347273 
L 62.692762 53.265943 
L 62.8284 11.347273 
L 63.099674 11.347273 
L 63.235311 88.049521 
L 63.370948 11.347273 
L 63.642223 11.347273 
L 63.913497 87.157634 
L 64.049135 85.373861 
L 64.184772 11.347273 
L 64.320409 74.671222 
L 64.456046 65.752356 
L 64.727321 84.481975 
L 64.998595 54.15783 
L 65.134233 56.83349 
L 65.26987 49.698397 
L 65.541144 67.536129 
L 65.676781 68.428016 
L 65.812419 16.698592 
L 65.948056 11.347273 
L 66.21933 71.103675 
L 66.354968 11.347273 
L 66.490605 87.157634 
L 66.626242 75.563109 
L 66.761879 91.617067 
L 66.897517 16.698592 
L 67.033154 71.103675 
L 67.168791 11.347273 
L 67.304428 83.590088 
L 67.440066 79.130655 
L 67.575703 70.211789 
L 67.71134 76.454995 
L 67.846977 55.049717 
L 67.982614 66.644242 
L 68.118252 91.617067 
L 68.389526 70.211789 
L 68.525163 88.941408 
L 68.660801 79.130655 
L 68.796438 11.347273 
L 68.932075 79.130655 
L 69.474624 11.347273 
L 69.610261 63.968583 
L 69.745898 40.779531 
L 69.881536 58.617263 
L 70.017173 37.211984 
L 70.15281 48.80651 
L 70.288447 79.130655 
L 70.424085 11.347273 
L 70.559722 82.698201 
L 70.830996 11.347273 
L 71.102271 92.508954 
L 71.237908 11.347273 
L 71.373545 11.347273 
L 71.509183 16.698592 
L 71.64482 85.373861 
L 71.780457 11.347273 
L 71.916094 94.292727 
L 72.187369 89.833294 
L 72.323006 85.373861 
L 72.59428 21.158025 
L 72.729918 22.941799 
L 72.865555 85.373861 
L 73.001192 87.157634 
L 73.136829 11.347273 
L 73.272467 22.049912 
L 73.543741 92.508954 
L 73.679378 74.671222 
L 73.815016 11.347273 
L 74.08629 78.238768 
L 74.221927 44.347077 
L 74.357564 78.238768 
L 74.493202 71.103675 
L 74.628839 83.590088 
L 74.764476 61.292923 
L 74.900113 11.347273 
L 75.035751 90.725181 
L 75.171388 81.806315 
L 75.307025 83.590088 
L 75.442662 34.536325 
L 75.5783 80.914428 
L 75.713937 11.347273 
L 75.849574 30.076891 
L 75.985211 71.103675 
L 76.120849 74.671222 
L 76.256486 41.671417 
L 76.392123 71.995562 
L 76.52776 66.644242 
L 76.663397 69.319902 
L 76.799035 56.83349 
L 77.070309 84.481975 
L 77.205946 81.806315 
L 77.341584 63.968583 
L 77.477221 28.293118 
L 77.612858 85.373861 
L 77.748495 80.914428 
L 77.884133 55.941603 
L 78.01977 91.617067 
L 78.291044 66.644242 
L 78.426681 70.211789 
L 78.562319 87.157634 
L 78.697956 76.454995 
L 78.833593 49.698397 
L 79.104868 83.590088 
L 79.240505 55.049717 
L 79.376142 87.157634 
L 79.647417 55.049717 
L 79.783054 79.130655 
L 79.918691 62.184809 
L 80.054328 84.481975 
L 80.189966 82.698201 
L 80.325603 63.076696 
L 80.46124 87.157634 
L 80.596877 46.13085 
L 80.732514 88.049521 
L 80.868152 63.968583 
L 81.139426 88.941408 
L 81.275063 57.725376 
L 81.410701 88.941408 
L 81.546338 86.265748 
L 81.681975 53.265943 
L 81.817612 77.346882 
L 81.95325 75.563109 
L 82.088887 80.022542 
L 82.224524 58.617263 
L 82.360161 11.347273 
L 82.495799 84.481975 
L 82.631436 85.373861 
L 82.767073 82.698201 
L 82.90271 66.644242 
L 83.173985 78.238768 
L 83.309622 11.347273 
L 83.445259 86.265748 
L 83.580896 68.428016 
L 83.852171 83.590088 
L 83.987808 81.806315 
L 84.123445 49.698397 
L 84.259083 89.833294 
L 84.39472 65.752356 
L 84.665994 80.914428 
L 84.801632 54.15783 
L 84.937269 87.157634 
L 85.072906 88.941408 
L 85.208543 75.563109 
L 85.479818 87.157634 
L 85.615455 83.590088 
L 85.751092 93.400841 
L 85.886729 59.50915 
L 86.022367 82.698201 
L 86.158004 79.130655 
L 86.293641 57.725376 
L 86.429278 87.157634 
L 86.564916 88.941408 
L 86.700553 85.373861 
L 86.83619 86.265748 
L 86.971827 70.211789 
L 87.107464 91.617067 
L 87.243102 85.373861 
L 87.514376 54.15783 
L 87.650013 87.157634 
L 87.785651 89.833294 
L 88.192562 65.752356 
L 88.3282 80.914428 
L 88.463837 76.454995 
L 88.599474 92.508954 
L 88.735111 81.806315 
L 88.870749 90.725181 
L 89.006386 88.049521 
L 89.142023 66.644242 
L 89.27766 88.941408 
L 89.413297 47.914624 
L 89.684572 84.481975 
L 89.820209 82.698201 
L 89.955846 87.157634 
L 90.091484 64.860469 
L 90.227121 86.265748 
L 90.362758 83.590088 
L 90.498395 74.671222 
L 90.634033 86.265748 
L 90.76967 78.238768 
L 90.905307 50.590283 
L 91.040944 81.806315 
L 91.176582 86.265748 
L 91.312219 80.914428 
L 91.447856 63.076696 
L 91.583493 82.698201 
L 91.71913 84.481975 
L 91.854768 89.833294 
L 91.990405 86.265748 
L 92.126042 90.725181 
L 92.261679 88.941408 
L 92.397317 63.968583 
L 92.532954 73.779335 
L 92.668591 66.644242 
L 92.804228 46.13085 
L 92.939866 91.617067 
L 93.075503 92.508954 
L 93.21114 89.833294 
L 93.346777 80.914428 
L 93.482414 89.833294 
L 93.618052 84.481975 
L 93.753689 62.184809 
L 94.024963 84.481975 
L 94.296238 88.049521 
L 94.431875 91.617067 
L 94.567512 75.563109 
L 94.838787 85.373861 
L 94.974424 74.671222 
L 95.110061 81.806315 
L 95.245699 76.454995 
L 95.381336 90.725181 
L 95.65261 83.590088 
L 95.788247 90.725181 
L 95.923885 78.238768 
L 96.059522 89.833294 
L 96.195159 74.671222 
L 96.330796 75.563109 
L 96.466434 91.617067 
L 96.602071 90.725181 
L 96.737708 41.671417 
L 96.873345 82.698201 
L 97.280257 71.995562 
L 97.415894 69.319902 
L 97.551532 88.049521 
L 97.687169 78.238768 
L 97.958443 84.481975 
L 98.09408 75.563109 
L 98.229718 91.617067 
L 98.365355 93.400841 
L 98.500992 86.265748 
L 98.636629 90.725181 
L 98.772267 86.265748 
L 98.907904 90.725181 
L 99.043541 82.698201 
L 99.179178 67.536129 
L 99.450453 67.536129 
L 99.58609 90.725181 
L 99.857365 82.698201 
L 99.993002 81.806315 
L 100.128639 73.779335 
L 100.264276 89.833294 
L 100.399913 84.481975 
L 100.535551 93.400841 
L 100.671188 88.049521 
L 100.806825 71.995562 
L 101.0781 85.373861 
L 101.213737 78.238768 
L 101.349374 79.130655 
L 101.620649 83.590088 
L 101.756286 80.022542 
L 101.891923 82.698201 
L 102.02756 80.022542 
L 102.163197 80.022542 
L 102.434472 94.292727 
L 102.570109 84.481975 
L 102.705746 88.049521 
L 102.841384 81.806315 
L 102.977021 91.617067 
L 103.112658 89.833294 
L 103.383933 91.617067 
L 103.51957 69.319902 
L 103.790844 92.508954 
L 103.926482 92.508954 
L 104.062119 71.995562 
L 104.197756 84.481975 
L 104.333393 78.238768 
L 104.46903 88.941408 
L 104.604668 88.941408 
L 104.740305 82.698201 
L 104.875942 93.400841 
L 105.147217 69.319902 
L 105.282854 93.400841 
L 105.418491 80.022542 
L 105.554128 80.022542 
L 105.689766 91.617067 
L 105.825403 88.049521 
L 105.96104 90.725181 
L 106.096677 90.725181 
L 106.232315 64.860469 
L 106.503589 87.157634 
L 106.639226 90.725181 
L 106.774863 90.725181 
L 106.910501 88.941408 
L 107.181775 80.022542 
L 107.45305 89.833294 
L 107.588687 87.157634 
L 107.724324 90.725181 
L 107.859961 89.833294 
L 107.995599 92.508954 
L 108.131236 92.508954 
L 108.266873 83.590088 
L 108.40251 90.725181 
L 108.673785 62.184809 
L 108.945059 91.617067 
L 109.080696 88.941408 
L 109.216334 90.725181 
L 109.351971 82.698201 
L 109.487608 84.481975 
L 109.623245 90.725181 
L 109.758883 80.022542 
L 109.89452 89.833294 
L 110.030157 89.833294 
L 110.165794 91.617067 
L 110.301432 82.698201 
L 110.437069 89.833294 
L 110.572706 90.725181 
L 110.708343 89.833294 
L 110.84398 87.157634 
L 110.979618 90.725181 
L 111.250892 79.130655 
L 111.386529 88.941408 
L 111.522167 85.373861 
L 111.657804 92.508954 
L 111.929078 80.914428 
L 112.200353 92.508954 
L 112.471627 82.698201 
L 112.607265 75.563109 
L 112.742902 87.157634 
L 112.878539 84.481975 
L 113.014176 91.617067 
L 113.149813 82.698201 
L 113.421088 92.508954 
L 113.556725 88.941408 
L 113.828 93.400841 
L 113.963637 85.373861 
L 114.099274 93.400841 
L 114.234911 89.833294 
L 114.370549 91.617067 
L 114.506186 88.941408 
L 114.641823 90.725181 
L 114.77746 83.590088 
L 115.048735 86.265748 
L 115.184372 92.508954 
L 115.320009 92.508954 
L 115.591284 86.265748 
L 115.726921 94.292727 
L 115.998195 84.481975 
L 116.133833 90.725181 
L 116.26947 80.022542 
L 116.405107 91.617067 
L 116.540744 84.481975 
L 116.676382 93.400841 
L 116.812019 89.833294 
L 116.947656 90.725181 
L 117.083293 87.157634 
L 117.21893 88.941408 
L 117.354568 86.265748 
L 117.490205 91.617067 
L 117.625842 92.508954 
L 117.761479 83.590088 
L 117.897117 94.292727 
L 118.032754 82.698201 
L 118.168391 92.508954 
L 118.304028 91.617067 
L 118.439666 76.454995 
L 118.575303 84.481975 
L 118.71094 82.698201 
L 118.846577 88.049521 
L 118.982215 88.049521 
L 119.117852 93.400841 
L 119.253489 82.698201 
L 119.389126 92.508954 
L 119.524763 91.617067 
L 119.796038 74.671222 
L 120.20295 92.508954 
L 120.338587 88.049521 
L 120.609861 94.292727 
L 120.881136 85.373861 
L 121.016773 89.833294 
L 121.15241 89.833294 
L 121.423685 91.617067 
L 121.559322 89.833294 
L 121.694959 84.481975 
L 121.830596 94.292727 
L 122.237508 79.130655 
L 122.373145 89.833294 
L 122.508783 88.049521 
L 122.64442 84.481975 
L 122.780057 85.373861 
L 122.915694 70.211789 
L 123.051332 91.617067 
L 123.186969 89.833294 
L 123.458243 91.617067 
L 123.593881 86.265748 
L 123.865155 90.725181 
L 124.000792 88.941408 
L 124.136429 94.292727 
L 124.272067 93.400841 
L 124.407704 83.590088 
L 124.543341 89.833294 
L 124.678978 86.265748 
L 124.814616 88.941408 
L 124.950253 88.049521 
L 125.08589 85.373861 
L 125.357165 91.617067 
L 125.492802 89.833294 
L 125.764076 93.400841 
L 125.899713 88.941408 
L 126.035351 89.833294 
L 126.170988 83.590088 
L 126.5779 93.400841 
L 126.713537 84.481975 
L 126.984811 91.617067 
L 127.120449 89.833294 
L 127.256086 94.292727 
L 127.391723 85.373861 
L 127.52736 93.400841 
L 127.662998 94.292727 
L 127.798635 88.941408 
L 127.934272 91.617067 
L 128.069909 91.617067 
L 128.205546 92.508954 
L 128.341184 87.157634 
L 128.476821 86.265748 
L 128.612458 87.157634 
L 128.748095 94.292727 
L 129.155007 87.157634 
L 129.290644 78.238768 
L 129.426282 90.725181 
L 129.561919 89.833294 
L 129.697556 90.725181 
L 129.833193 83.590088 
L 129.968831 87.157634 
L 130.104468 86.265748 
L 130.240105 80.914428 
L 130.375742 91.617067 
L 130.511379 93.400841 
L 130.647017 93.400841 
L 130.782654 86.265748 
L 130.918291 89.833294 
L 131.053928 85.373861 
L 131.189566 93.400841 
L 131.325203 92.508954 
L 131.46084 79.130655 
L 131.596477 93.400841 
L 131.732115 93.400841 
L 131.867752 92.508954 
L 132.003389 94.292727 
L 132.139026 91.617067 
L 132.274664 82.698201 
L 132.410301 93.400841 
L 132.545938 91.617067 
L 132.681575 92.508954 
L 132.817212 80.022542 
L 132.95285 92.508954 
L 133.088487 91.617067 
L 133.224124 89.833294 
L 133.359761 92.508954 
L 133.495399 88.941408 
L 133.631036 90.725181 
L 133.766673 85.373861 
L 133.90231 92.508954 
L 134.037948 90.725181 
L 134.173585 87.157634 
L 134.309222 89.833294 
L 134.444859 89.833294 
L 134.580496 92.508954 
L 134.851771 88.049521 
L 134.987408 91.617067 
L 135.123045 88.941408 
L 135.258683 93.400841 
L 135.39432 87.157634 
L 135.529957 88.049521 
L 135.665594 94.292727 
L 135.801232 89.833294 
L 136.072506 91.617067 
L 136.208143 90.725181 
L 136.343781 88.049521 
L 136.479418 88.941408 
L 136.750692 93.400841 
L 137.157604 83.590088 
L 137.293241 94.292727 
L 137.428878 89.833294 
L 137.700153 93.400841 
L 137.971427 80.022542 
L 138.107065 93.400841 
L 138.242702 91.617067 
L 138.378339 94.292727 
L 138.513976 82.698201 
L 138.649614 94.292727 
L 138.785251 87.157634 
L 138.920888 91.617067 
L 139.056525 80.914428 
L 139.192162 92.508954 
L 139.3278 82.698201 
L 139.734711 92.508954 
L 139.870349 90.725181 
L 140.005986 85.373861 
L 140.141623 92.508954 
L 140.27726 91.617067 
L 140.412898 94.292727 
L 140.548535 92.508954 
L 140.684172 92.508954 
L 140.819809 94.292727 
L 141.226721 91.617067 
L 141.362358 93.400841 
L 141.497995 88.941408 
L 141.633633 89.833294 
L 141.76927 88.049521 
L 141.904907 88.049521 
L 142.176182 92.508954 
L 142.311819 92.508954 
L 142.447456 85.373861 
L 142.854368 94.292727 
L 142.990005 94.292727 
L 143.125642 81.806315 
L 143.261279 93.400841 
L 143.396917 91.617067 
L 143.532554 91.617067 
L 143.668191 89.833294 
L 143.803828 83.590088 
L 143.939466 87.157634 
L 144.075103 94.292727 
L 144.21074 89.833294 
L 144.346377 94.292727 
L 144.482015 87.157634 
L 144.753289 88.941408 
L 145.024564 85.373861 
L 145.160201 92.508954 
L 145.295838 80.022542 
L 145.567112 91.617067 
L 145.70275 92.508954 
L 145.974024 88.049521 
L 146.109661 92.508954 
L 146.245299 92.508954 
L 146.380936 90.725181 
L 146.516573 94.292727 
L 146.65221 81.806315 
L 146.787848 91.617067 
L 146.923485 92.508954 
L 147.059122 92.508954 
L 147.194759 66.644242 
L 147.330397 90.725181 
L 147.466034 90.725181 
L 147.601671 93.400841 
L 147.737308 87.157634 
L 147.872945 93.400841 
L 148.14422 93.400841 
L 148.279857 86.265748 
L 148.415494 90.725181 
L 148.551132 88.049521 
L 148.686769 88.941408 
L 148.822406 92.508954 
L 148.958043 89.833294 
L 149.093681 92.508954 
L 149.229318 90.725181 
L 149.364955 92.508954 
L 149.500592 88.049521 
L 149.636229 92.508954 
L 149.771867 92.508954 
L 149.907504 94.292727 
L 150.043141 89.833294 
L 150.178778 90.725181 
L 150.314416 94.292727 
L 150.450053 90.725181 
L 150.58569 91.617067 
L 150.721327 83.590088 
L 150.856965 92.508954 
L 150.992602 92.508954 
L 151.128239 86.265748 
L 151.263876 86.265748 
L 151.399514 92.508954 
L 151.535151 92.508954 
L 151.670788 93.400841 
L 151.806425 85.373861 
L 151.942062 91.617067 
L 152.0777 89.833294 
L 152.213337 89.833294 
L 152.348974 84.481975 
L 152.484611 83.590088 
L 152.620249 94.292727 
L 152.755886 90.725181 
L 152.891523 93.400841 
L 153.298435 93.400841 
L 153.434072 85.373861 
L 153.705347 92.508954 
L 153.840984 83.590088 
L 153.976621 88.941408 
L 154.112258 89.833294 
L 154.247895 89.833294 
L 154.383533 88.049521 
L 154.51917 91.617067 
L 154.654807 90.725181 
L 154.790444 90.725181 
L 154.926082 86.265748 
L 155.061719 92.508954 
L 155.332993 92.508954 
L 155.468631 91.617067 
L 155.604268 94.292727 
L 155.739905 82.698201 
L 155.875542 93.400841 
L 156.01118 94.292727 
L 156.146817 88.941408 
L 156.282454 94.292727 
L 156.418091 89.833294 
L 156.553728 69.319902 
L 156.689366 93.400841 
L 156.825003 91.617067 
L 156.96064 87.157634 
L 157.231915 93.400841 
L 157.503189 93.400841 
L 157.638826 87.157634 
L 157.774464 90.725181 
L 158.045738 88.941408 
L 158.181375 91.617067 
L 158.317012 86.265748 
L 158.45265 88.941408 
L 158.588287 87.157634 
L 158.723924 92.508954 
L 158.995199 94.292727 
L 159.130836 87.157634 
L 159.40211 94.292727 
L 159.673385 90.725181 
L 159.944659 90.725181 
L 160.215934 85.373861 
L 160.622845 94.292727 
L 160.758483 84.481975 
L 160.89412 86.265748 
L 161.029757 85.373861 
L 161.165394 92.508954 
L 161.301032 93.400841 
L 161.436669 92.508954 
L 161.707943 89.833294 
L 161.843581 93.400841 
L 161.979218 91.617067 
L 162.114855 91.617067 
L 162.250492 93.400841 
L 162.38613 81.806315 
L 162.521767 91.617067 
L 162.657404 91.617067 
L 162.793041 90.725181 
L 162.928678 91.617067 
L 163.064316 94.292727 
L 163.199953 94.292727 
L 163.33559 87.157634 
L 163.471227 89.833294 
L 163.606865 89.833294 
L 163.742502 91.617067 
L 164.013776 89.833294 
L 164.149414 90.725181 
L 164.285051 94.292727 
L 164.420688 90.725181 
L 164.556325 91.617067 
L 164.691962 94.292727 
L 164.8276 85.373861 
L 165.098874 93.400841 
L 165.234511 92.508954 
L 165.370149 93.400841 
L 165.505786 80.914428 
L 165.641423 84.481975 
L 165.77706 92.508954 
L 165.912698 90.725181 
L 166.048335 90.725181 
L 166.319609 94.292727 
L 166.455247 91.617067 
L 166.590884 91.617067 
L 166.862158 93.400841 
L 166.997795 91.617067 
L 167.133433 88.049521 
L 167.26907 92.508954 
L 167.404707 85.373861 
L 167.675982 92.508954 
L 167.811619 88.049521 
L 167.947256 94.292727 
L 168.082893 81.806315 
L 168.218531 94.292727 
L 168.354168 88.941408 
L 168.489805 90.725181 
L 168.625442 84.481975 
L 168.76108 89.833294 
L 168.896717 86.265748 
L 169.032354 93.400841 
L 169.167991 94.292727 
L 169.439266 89.833294 
L 169.574903 91.617067 
L 169.71054 84.481975 
L 169.981815 94.292727 
L 170.253089 89.833294 
L 170.524364 92.508954 
L 170.660001 90.725181 
L 170.795638 92.508954 
L 170.931275 92.508954 
L 171.066913 94.292727 
L 171.20255 92.508954 
L 171.473824 84.481975 
L 171.609461 91.617067 
L 172.016373 91.617067 
L 172.15201 94.292727 
L 172.287648 94.292727 
L 172.423285 88.049521 
L 172.694559 94.292727 
L 172.830197 93.400841 
L 172.965834 89.833294 
L 173.101471 94.292727 
L 173.237108 90.725181 
L 173.372745 92.508954 
L 173.64402 88.049521 
L 173.779657 93.400841 
L 173.915294 91.617067 
L 174.050932 91.617067 
L 174.186569 93.400841 
L 174.322206 90.725181 
L 174.457843 93.400841 
L 174.593481 88.941408 
L 175.000392 94.292727 
L 175.13603 88.941408 
L 175.271667 91.617067 
L 175.407304 90.725181 
L 175.542941 92.508954 
L 175.678578 88.941408 
L 175.814216 91.617067 
L 175.949853 90.725181 
L 176.08549 90.725181 
L 176.221127 94.292727 
L 176.356765 90.725181 
L 176.492402 92.508954 
L 176.628039 90.725181 
L 176.763676 94.292727 
L 177.034951 90.725181 
L 177.170588 93.400841 
L 177.306225 85.373861 
L 177.441863 92.508954 
L 177.5775 88.049521 
L 177.713137 90.725181 
L 177.848774 81.806315 
L 177.984411 91.617067 
L 178.120049 89.833294 
L 178.255686 91.617067 
L 178.391323 90.725181 
L 178.52696 91.617067 
L 178.662598 88.049521 
L 178.798235 91.617067 
L 179.069509 91.617067 
L 179.205147 94.292727 
L 179.340784 84.481975 
L 179.612058 94.292727 
L 179.747696 88.049521 
L 179.883333 94.292727 
L 180.01897 93.400841 
L 180.290244 87.157634 
L 180.425882 92.508954 
L 180.561519 91.617067 
L 180.697156 92.508954 
L 180.832793 92.508954 
L 180.968431 93.400841 
L 181.239705 88.941408 
L 181.375342 92.508954 
L 181.51098 89.833294 
L 181.646617 91.617067 
L 181.782254 82.698201 
L 181.917891 91.617067 
L 182.053528 90.725181 
L 182.189166 94.292727 
L 182.324803 89.833294 
L 182.46044 93.400841 
L 182.731715 88.941408 
L 182.867352 89.833294 
L 183.002989 88.941408 
L 183.138626 93.400841 
L 183.274264 93.400841 
L 183.409901 90.725181 
L 183.545538 93.400841 
L 183.681175 90.725181 
L 183.816813 90.725181 
L 184.088087 94.292727 
L 184.223724 92.508954 
L 184.359361 92.508954 
L 184.494999 90.725181 
L 184.630636 91.617067 
L 184.766273 90.725181 
L 184.90191 94.292727 
L 185.037548 93.400841 
L 185.173185 89.833294 
L 185.308822 93.400841 
L 185.444459 85.373861 
L 185.580097 93.400841 
L 185.715734 94.292727 
L 185.851371 89.833294 
L 185.987008 91.617067 
L 186.122646 89.833294 
L 186.258283 93.400841 
L 186.39392 89.833294 
L 186.529557 94.292727 
L 186.665194 88.049521 
L 186.800832 88.941408 
L 186.936469 93.400841 
L 187.207743 87.157634 
L 187.343381 93.400841 
L 187.479018 90.725181 
L 187.614655 93.400841 
L 187.750292 93.400841 
L 187.88593 94.292727 
L 188.021567 92.508954 
L 188.157204 88.049521 
L 188.292841 92.508954 
L 188.564116 89.833294 
L 188.699753 93.400841 
L 188.83539 88.941408 
L 189.106665 94.292727 
L 189.242302 90.725181 
L 189.242302 90.725181 
" clip-path="url(#p55e04f9099)" style="fill: none; stroke: #000000; stroke-opacity: 0.7; stroke-linecap: square"/>
   </g>
   <g id="patch_3">
    <path d="M 46.965625 98.44 
L 46.965625 7.2 
" style="fill: none; stroke: #000000; stroke-width: 0.8; stroke-linejoin: miter; stroke-linecap: square"/>
   </g>
   <g id="patch_4">
    <path d="M 196.017382 98.44 
L 196.017382 7.2 
" style="fill: none; stroke: #000000; stroke-width: 0.8; stroke-linejoin: miter; stroke-linecap: square"/>
   </g>
   <g id="patch_5">
    <path d="M 46.965625 98.44 
L 196.017382 98.44 
" style="fill: none; stroke: #000000; stroke-width: 0.8; stroke-linejoin: miter; stroke-linecap: square"/>
   </g>
   <g id="patch_6">
    <path d="M 46.965625 7.2 
L 196.017382 7.2 
" style="fill: none; stroke: #000000; stroke-width: 0.8; stroke-linejoin: miter; stroke-linecap: square"/>
   </g>
  </g>
 </g>
 <defs>
  <clipPath id="p55e04f9099">
   <rect x="46.965625" y="7.2" width="149.051757" height="91.24"/>
  </clipPath>
 </defs>
</svg>
